<?xml version="1.0" encoding="utf-8"?>
<!-- Generator: Adobe Illustrator 17.1.0, SVG Export Plug-In . SVG Version: 6.00 Build 0)  -->
<!DOCTYPE svg PUBLIC "-//W3C//DTD SVG 1.1//EN" "http://www.w3.org/Graphics/SVG/1.1/DTD/svg11.dtd">
<svg version="1.1" id="Layer_1" xmlns="http://www.w3.org/2000/svg" xmlns:xlink="http://www.w3.org/1999/xlink" x="0px" y="0px"
	 viewBox="0 0 960 960" enable-background="new 0 0 960 960" xml:space="preserve">
<path fill="#00A887" d="M480,631c-0.6,0-1-0.4-1-1c0-11.2-10.8-20.3-24-20.3c-0.6,0-1-0.4-1-1s0.4-1,1-1c14.3,0,26,10,26,22.3
	C481,630.6,480.6,631,480,631z"/>
<path fill="#00A887" d="M480,631c-0.6,0-1-0.4-1-1c0-12.3,11.7-22.3,26-22.3c0.6,0,1,0.4,1,1s-0.4,1-1,1c-13.2,0-24,9.1-24,20.3
	C481,630.6,480.6,631,480,631z"/>
<path fill="#00A887" d="M680,609.7H505c-0.6,0-1-0.4-1-1s0.4-1,1-1h175c0.6,0,1,0.4,1,1S680.6,609.7,680,609.7z"/>
<path fill="#00A887" d="M455,609.7H280c-0.6,0-1-0.4-1-1s0.4-1,1-1h175c0.6,0,1,0.4,1,1S455.6,609.7,455,609.7z"/>
<path fill="#00A887" d="M705,585.2c-0.6,0-1-0.4-1-1V360.6c0-0.6,0.4-1,1-1s1,0.4,1,1v223.7C706,584.8,705.6,585.2,705,585.2z"/>
<path fill="#00A887" d="M255,585.2c-0.6,0-1-0.4-1-1V360.6c0-0.6,0.4-1,1-1s1,0.4,1,1v223.7C256,584.8,255.6,585.2,255,585.2z"/>
<path fill="#00A887" d="M680,609.7c-0.6,0-1-0.4-1-1s0.4-1,1-1c13.2,0,24-10.5,24-23.5c0-0.6,0.4-1,1-1s1,0.4,1,1
	C706,598.3,694.3,609.7,680,609.7z"/>
<path fill="#00A887" d="M280,609.7c-14.3,0-26-11.4-26-25.5c0-0.6,0.4-1,1-1s1,0.4,1,1c0,13,10.8,23.5,24,23.5c0.6,0,1,0.4,1,1
	S280.6,609.7,280,609.7z"/>
<line fill="none" x1="480" y1="623.9" x2="480" y2="351.3"/>
<path fill="#00A887" d="M480,624.9c-0.6,0-1-0.4-1-1V351.3c0-0.6,0.4-1,1-1c0.6,0,1,0.4,1,1v272.6C481,624.5,480.6,624.9,480,624.9z
	"/>
<path fill="none" d="M705,354.5v223.7c0,13.5-11.2,24.5-25,24.5H505c-13.8,0-25,9.5-25,21.3c0-11.8-11.2-21.3-25-21.3H280
	c-13.8,0-25-11-25-24.5V354.5c0-13.5,11.2-24.5,25-24.5h175c13.8,0,25,9.5,25,21.3c0-11.8,11.2-21.3,25-21.3h175
	C693.8,330,705,341,705,354.5"/>
<path fill="#00A887" d="M480,624.9c-0.6,0-1-0.4-1-1c0-11.2-10.8-20.3-24-20.3H280c-14.3,0-26-11.4-26-25.5V354.5
	c0-14.1,11.7-25.5,26-25.5h175c11.9,0,21.9,6.8,25,16.2c3.1-9.3,13.1-16.2,25-16.2h175c14.3,0,26,11.4,26,25.5v223.7
	c0,14.1-11.7,25.5-26,25.5H505c-13.2,0-24,9.1-24,20.3C481,624.5,480.6,624.9,480,624.9z M280,331c-13.2,0-24,10.5-24,23.5v223.7
	c0,13,10.8,23.5,24,23.5h175c11.9,0,21.9,6.8,25,16.2c3.1-9.3,13.1-16.2,25-16.2h175c13.2,0,24-10.5,24-23.5V354.5
	c0-13-10.8-23.5-24-23.5H505c-13.2,0-24,9.1-24,20.3c0,0.6-0.4,1-1,1c-0.6,0-1-0.4-1-1c0-11.2-10.8-20.3-24-20.3H280z"/>
<line fill="none" x1="480" y1="623.9" x2="480" y2="351.3"/>
<path fill="#00A887" d="M480,624.9c-0.6,0-1-0.4-1-1V351.3c0-0.6,0.4-1,1-1c0.6,0,1,0.4,1,1v272.6C481,624.5,480.6,624.9,480,624.9z
	"/>
<rect x="253" y="328" fill="none" width="304" height="304"/>
<path fill="#111820" d="M555,631H255c-0.6,0-1-0.4-1-1V429.2c0-0.6,0.4-1,1-1s1,0.4,1,1V629h298V429.6c0-0.6,0.4-1,1-1s1,0.4,1,1
	V630C556,630.6,555.6,631,555,631z"/>
<rect x="253" y="328" fill="none" width="304" height="304"/>
<path fill="#111820" d="M455.3,331H355.1c-0.6,0-1-0.4-1-1s0.4-1,1-1h100.3c0.6,0,1,0.4,1,1S455.9,331,455.3,331z"/>
<rect x="253" y="328" fill="none" width="304" height="304"/>
<path fill="#111820" d="M454.7,631c-0.6,0-1-0.4-1-1V429.6c0-0.6,0.4-1,1-1s1,0.4,1,1V630C455.7,630.6,455.3,631,454.7,631z"/>
<rect x="253" y="328" fill="none" width="304" height="304"/>
<path fill="#111820" d="M255,430.2c-0.3,0-0.5-0.1-0.7-0.3c-0.4-0.4-0.4-1,0-1.4l100.1-99.2c0.4-0.4,1-0.4,1.4,0
	c0.4,0.4,0.4,1,0,1.4l-100.1,99.2C255.5,430.1,255.3,430.2,255,430.2z"/>
<rect x="253" y="328" fill="none" width="304" height="304"/>
<path fill="#111820" d="M454.7,430.6c-0.3,0-0.5-0.1-0.7-0.3l-99.7-99.6c-0.4-0.4-0.4-1,0-1.4c0.4-0.4,1-0.4,1.4,0l99.7,99.6
	c0.4,0.4,0.4,1,0,1.4C455.2,430.5,455,430.6,454.7,430.6z"/>
<rect x="253" y="328" fill="none" width="304" height="304"/>
<path fill="#111820" d="M555,430.6c-0.3,0-0.5-0.1-0.7-0.3l-99.7-99.6c-0.4-0.4-0.4-1,0-1.4c0.4-0.4,1-0.4,1.4,0l99.7,99.6
	c0.4,0.4,0.4,1,0,1.4C555.5,430.5,555.3,430.6,555,430.6z"/>
<rect x="253" y="328" fill="none" width="304" height="304"/>
<path fill="#111820" d="M380,631h-49.9c-0.6,0-1-0.4-1-1V529.8c0-0.6,0.4-1,1-1H380c0.6,0,1,0.4,1,1V630
	C381,630.6,380.6,631,380,631z M331.1,629H379v-98.2h-47.9V629z"/>
<rect x="253" y="328" fill="none" width="304" height="304"/>
<path fill="#0082CA" d="M705,631c-0.6,0-1-0.4-1-1V355c0-0.6,0.4-1,1-1s1,0.4,1,1v275C706,630.6,705.6,631,705,631z"/>
<path fill="#0082CA" d="M255,631c-0.6,0-1-0.4-1-1V355c0-0.6,0.4-1,1-1s1,0.4,1,1v275C256,630.6,255.6,631,255,631z"/>
<path fill="#0082CA" d="M280,380.9c-14.3,0-26-11.6-26-26c0-14.3,11.7-26,26-26c0.6,0,1,0.4,1,1s-0.4,1-1,1c-13.2,0-24,10.7-24,24
	c0,13.2,10.8,24,24,24c0.6,0,1,0.4,1,1S280.6,380.9,280,380.9z"/>
<path fill="#0082CA" d="M680,380.9c-0.6,0-1-0.4-1-1s0.4-1,1-1c13.2,0,24-10.7,24-24c0-13.2-10.8-24-24-24c-0.6,0-1-0.4-1-1
	s0.4-1,1-1c14.3,0,26,11.6,26,26C706,369.3,694.3,380.9,680,380.9z"/>
<path fill="#0082CA" d="M280,480.8c-14.3,0-26-11.6-26-26c0-0.6,0.4-1,1-1s1,0.4,1,1c0,13.2,10.8,24,24,24c0.6,0,1,0.4,1,1
	S280.6,480.8,280,480.8z"/>
<path fill="#0082CA" d="M680,480.8c-0.6,0-1-0.4-1-1s0.4-1,1-1c13.2,0,24-10.7,24-24c0-0.6,0.4-1,1-1s1,0.4,1,1
	C706,469.1,694.3,480.8,680,480.8z"/>
<path fill="#0082CA" d="M680,380.9H280c-0.6,0-1-0.4-1-1s0.4-1,1-1h400c0.6,0,1,0.4,1,1S680.6,380.9,680,380.9z"/>
<path fill="#0082CA" d="M680,480.8H280c-0.6,0-1-0.4-1-1s0.4-1,1-1h400c0.6,0,1,0.4,1,1S680.6,480.8,680,480.8z"/>
<path fill="#0082CA" d="M680,380.9c-0.6,0-1-0.4-1-1V330c0-0.6,0.4-1,1-1s1,0.4,1,1v49.9C681,380.5,680.6,380.9,680,380.9z"/>
<path fill="#0082CA" d="M280,380.9c-0.6,0-1-0.4-1-1V330c0-0.6,0.4-1,1-1s1,0.4,1,1v49.9C281,380.5,280.6,380.9,280,380.9z"/>
<path fill="#111820" d="M480,881c-54.1,0-106.6-10.6-156.1-31.5c-47.8-20.2-90.6-49.1-127.5-85.9s-65.7-79.7-85.9-127.5
	C89.6,586.6,79,534.1,79,480c0-54.1,10.6-106.6,31.5-156.1c20.2-47.8,49.1-90.6,85.9-127.5s79.7-65.7,127.5-85.9
	C373.4,89.6,425.9,79,480,79c54.1,0,106.6,10.6,156.1,31.5c47.8,20.2,90.6,49.1,127.5,85.9s65.7,79.7,85.9,127.5
	c20.9,49.4,31.5,102,31.5,156.1c0,54.1-10.6,106.6-31.5,156.1c-20.2,47.8-49.1,90.6-85.9,127.5s-79.7,65.7-127.5,85.9
	C586.6,870.4,534.1,881,480,881z M480,81c-53.9,0-106.1,10.5-155.3,31.4c-47.5,20.1-90.2,48.9-126.8,85.5
	c-36.6,36.6-65.4,79.3-85.5,126.8C91.5,373.9,81,426.1,81,480s10.5,106.1,31.4,155.3c20.1,47.5,48.9,90.2,85.5,126.8
	c36.6,36.6,79.3,65.4,126.8,85.5C373.9,868.5,426.1,879,480,879s106.1-10.5,155.3-31.4c47.5-20.1,90.2-48.9,126.8-85.5
	s65.4-79.3,85.5-126.8C868.5,586.1,879,533.9,879,480s-10.5-106.1-31.4-155.3c-20.1-47.5-48.9-90.2-85.5-126.8
	c-36.6-36.6-79.3-65.4-126.8-85.5C586.1,91.5,533.9,81,480,81z"/>
<path fill="#111820" d="M529.9,530.8H480c-0.6,0-1-0.4-1-1v-50.1c0-0.6,0.4-1,1-1h49.9c0.6,0,1,0.4,1,1v50.1
	C530.9,530.3,530.5,530.8,529.9,530.8z M481,528.8h47.9v-48.1H481V528.8z"/>
<path fill="#111820" d="M529.9,580.9H480c-0.6,0-1-0.4-1-1v-50.1c0-0.6,0.4-1,1-1h49.9c0.6,0,1,0.4,1,1v50.1
	C530.9,580.5,530.5,580.9,529.9,580.9z M481,578.9h47.9v-48.1H481V578.9z"/>
</svg>
