<?xml version="1.0" encoding="utf-8"?>
<!-- Generator: Adobe Illustrator 16.0.0, SVG Export Plug-In . SVG Version: 6.00 Build 0)  -->
<!DOCTYPE svg PUBLIC "-//W3C//DTD SVG 1.1//EN" "http://www.w3.org/Graphics/SVG/1.1/DTD/svg11.dtd">
<svg version="1.1" id="Layer_1" xmlns="http://www.w3.org/2000/svg" xmlns:xlink="http://www.w3.org/1999/xlink" x="0px" y="0px"
	 width="960px" height="560px" viewBox="0 0 960 560" enable-background="new 0 0 960 560" xml:space="preserve">
<g>
	<g>
		<g>
			<defs>
				<rect id="SVGID_1_" x="367.14" y="204.188" width="227" height="152"/>
			</defs>
			<clipPath id="SVGID_2_">
				<use xlink:href="#SVGID_1_"  overflow="visible"/>
			</clipPath>
			
				<path clip-path="url(#SVGID_2_)" fill="none" stroke="#00A887" stroke-width="2" stroke-linecap="round" stroke-linejoin="round" stroke-miterlimit="10" d="
				M468.14,344.537c6.904,0,12.5,4.768,12.5,10.65"/>
			
				<path clip-path="url(#SVGID_2_)" fill="none" stroke="#00A887" stroke-width="2" stroke-linecap="round" stroke-linejoin="round" stroke-miterlimit="10" d="
				M480.64,355.188c0-5.881,5.597-10.65,12.5-10.65"/>
			
				<line clip-path="url(#SVGID_2_)" fill="none" stroke="#00A887" stroke-width="2" stroke-linecap="round" stroke-linejoin="round" stroke-miterlimit="10" x1="493.14" y1="344.537" x2="580.64" y2="344.537"/>
			
				<line clip-path="url(#SVGID_2_)" fill="none" stroke="#00A887" stroke-width="2" stroke-linecap="round" stroke-linejoin="round" stroke-miterlimit="10" x1="380.64" y1="344.537" x2="468.14" y2="344.537"/>
			
				<path clip-path="url(#SVGID_2_)" fill="none" stroke="#00A887" stroke-width="2" stroke-linecap="round" stroke-linejoin="round" stroke-miterlimit="10" d="
				M468.14,208.215c6.904,0,12.5,4.768,12.5,10.65"/>
			
				<path clip-path="url(#SVGID_2_)" fill="none" stroke="#00A887" stroke-width="2" stroke-linecap="round" stroke-linejoin="round" stroke-miterlimit="10" d="
				M480.64,218.866c0-5.882,5.597-10.65,12.5-10.65"/>
			
				<line clip-path="url(#SVGID_2_)" fill="none" stroke="#00A887" stroke-width="2" stroke-linecap="round" stroke-linejoin="round" stroke-miterlimit="10" x1="493.14" y1="208.215" x2="580.64" y2="208.215"/>
			
				<line clip-path="url(#SVGID_2_)" fill="none" stroke="#00A887" stroke-width="2" stroke-linecap="round" stroke-linejoin="round" stroke-miterlimit="10" x1="380.64" y1="208.215" x2="468.14" y2="208.215"/>
			
				<line clip-path="url(#SVGID_2_)" fill="none" stroke="#00A887" stroke-width="2" stroke-linecap="round" stroke-linejoin="round" stroke-miterlimit="10" x1="593.14" y1="332.289" x2="593.14" y2="220.463"/>
			
				<line clip-path="url(#SVGID_2_)" fill="none" stroke="#00A887" stroke-width="2" stroke-linecap="round" stroke-linejoin="round" stroke-miterlimit="10" x1="368.14" y1="332.289" x2="368.14" y2="220.463"/>
			
				<path clip-path="url(#SVGID_2_)" fill="none" stroke="#00A887" stroke-width="2" stroke-linecap="round" stroke-linejoin="round" stroke-miterlimit="10" d="
				M593.14,332.289c0,6.766-5.596,12.248-12.5,12.248"/>
			
				<path clip-path="url(#SVGID_2_)" fill="none" stroke="#00A887" stroke-width="2" stroke-linecap="round" stroke-linejoin="round" stroke-miterlimit="10" d="
				M580.64,208.215c6.904,0,12.5,5.483,12.5,12.248"/>
			
				<path clip-path="url(#SVGID_2_)" fill="none" stroke="#00A887" stroke-width="2" stroke-linecap="round" stroke-linejoin="round" stroke-miterlimit="10" d="
				M380.64,344.537c-6.904,0-12.5-5.482-12.5-12.248"/>
			
				<path clip-path="url(#SVGID_2_)" fill="none" stroke="#00A887" stroke-width="2" stroke-linecap="round" stroke-linejoin="round" stroke-miterlimit="10" d="
				M368.14,220.463c0-6.765,5.596-12.248,12.5-12.248"/>
			<line clip-path="url(#SVGID_2_)" fill="#FFFFFF" x1="480.64" y1="352.16" x2="480.64" y2="215.838"/>
			
				<line clip-path="url(#SVGID_2_)" fill="none" stroke="#00A887" stroke-width="2" stroke-linecap="round" stroke-linejoin="round" stroke-miterlimit="10" x1="480.64" y1="352.16" x2="480.64" y2="215.838"/>
			<path clip-path="url(#SVGID_2_)" fill="#FFFFFF" d="M593.14,217.435v111.827c0,6.766-5.596,12.248-12.5,12.248h-87.5
				c-6.903,0-12.5,4.77-12.5,10.65c0-5.881-5.596-10.65-12.5-10.65h-87.5c-6.904,0-12.5-5.482-12.5-12.248V217.435
				c0-6.764,5.596-12.247,12.5-12.247h87.5c6.904,0,12.5,4.769,12.5,10.649c0-5.881,5.597-10.649,12.5-10.649h87.5
				C587.544,205.188,593.14,210.671,593.14,217.435"/>
			
				<path clip-path="url(#SVGID_2_)" fill="none" stroke="#00A887" stroke-width="2" stroke-linecap="round" stroke-linejoin="round" stroke-miterlimit="10" d="
				M593.14,217.435v111.827c0,6.766-5.596,12.248-12.5,12.248h-87.5c-6.903,0-12.5,4.77-12.5,10.65c0-5.881-5.596-10.65-12.5-10.65
				h-87.5c-6.904,0-12.5-5.482-12.5-12.248V217.435c0-6.764,5.596-12.247,12.5-12.247h87.5c6.904,0,12.5,4.769,12.5,10.649
				c0-5.881,5.597-10.649,12.5-10.649h87.5C587.544,205.188,593.14,210.671,593.14,217.435z"/>
			<line clip-path="url(#SVGID_2_)" fill="#FFFFFF" x1="480.64" y1="352.16" x2="480.64" y2="215.838"/>
			
				<line clip-path="url(#SVGID_2_)" fill="none" stroke="#00A887" stroke-width="2" stroke-linecap="round" stroke-linejoin="round" stroke-miterlimit="10" x1="480.64" y1="352.16" x2="480.64" y2="215.838"/>
		</g>
	</g>
	<g>
		<g>
			<defs>
				<rect id="SVGID_3_" x="367.14" y="204.188" width="152" height="152"/>
			</defs>
			<clipPath id="SVGID_4_">
				<use xlink:href="#SVGID_3_"  overflow="visible"/>
			</clipPath>
			
				<polyline clip-path="url(#SVGID_4_)" fill="none" stroke="#111820" stroke-width="2" stroke-linecap="round" stroke-linejoin="round" stroke-miterlimit="10" points="
				518.14,254.981 518.14,355.188 368.14,355.188 368.14,254.774 			"/>
			
				<line clip-path="url(#SVGID_4_)" fill="none" stroke="#111820" stroke-width="2" stroke-linecap="round" stroke-linejoin="round" stroke-miterlimit="10" x1="418.174" y1="205.188" x2="468.312" y2="205.188"/>
			
				<polyline clip-path="url(#SVGID_4_)" fill="none" stroke="#111820" stroke-width="2" stroke-linecap="round" stroke-linejoin="round" stroke-miterlimit="10" points="
				368.14,355.188 468.002,355.188 468.002,254.981 			"/>
			
				<line clip-path="url(#SVGID_4_)" fill="none" stroke="#111820" stroke-width="2" stroke-linecap="round" stroke-linejoin="round" stroke-miterlimit="10" x1="418.174" y1="205.188" x2="368.141" y2="254.775"/>
			
				<line clip-path="url(#SVGID_4_)" fill="none" stroke="#111820" stroke-width="2" stroke-linecap="round" stroke-linejoin="round" stroke-miterlimit="10" x1="418.174" y1="205.188" x2="468.002" y2="254.981"/>
			
				<line clip-path="url(#SVGID_4_)" fill="none" stroke="#111820" stroke-width="2" stroke-linecap="round" stroke-linejoin="round" stroke-miterlimit="10" x1="468.312" y1="205.188" x2="518.141" y2="254.981"/>
			
				<rect x="405.692" y="305.086" clip-path="url(#SVGID_4_)" fill="none" stroke="#111820" stroke-width="2" stroke-linecap="round" stroke-linejoin="round" stroke-miterlimit="10" width="24.966" height="50.102"/>
			
				<rect x="480.64" y="280.033" clip-path="url(#SVGID_4_)" fill="none" stroke="#111820" stroke-width="2" stroke-linecap="round" stroke-linejoin="round" stroke-miterlimit="10" width="24.967" height="50.104"/>
			
				<rect x="480.64" y="305.084" clip-path="url(#SVGID_4_)" fill="none" stroke="#111820" stroke-width="2" stroke-linecap="round" stroke-linejoin="round" stroke-miterlimit="10" width="25.053" height="25.053"/>
		</g>
	</g>
	<g>
		<g>
			<defs>
				<rect id="SVGID_5_" x="367.14" y="204.188" width="227" height="152"/>
			</defs>
			<clipPath id="SVGID_6_">
				<use xlink:href="#SVGID_5_"  overflow="visible"/>
			</clipPath>
			
				<line clip-path="url(#SVGID_6_)" fill="none" stroke="#0082CA" stroke-width="2" stroke-linecap="round" stroke-linejoin="round" stroke-miterlimit="10" x1="593.14" y1="355.188" x2="593.14" y2="217.668"/>
			
				<line clip-path="url(#SVGID_6_)" fill="none" stroke="#0082CA" stroke-width="2" stroke-linecap="round" stroke-linejoin="round" stroke-miterlimit="10" x1="368.14" y1="217.668" x2="368.14" y2="355.188"/>
			
				<path clip-path="url(#SVGID_6_)" fill="none" stroke="#0082CA" stroke-width="2" stroke-linecap="round" stroke-linejoin="round" stroke-miterlimit="10" d="
				M380.64,230.149c-6.904,0-12.5-5.588-12.5-12.48s5.596-12.48,12.5-12.48"/>
			
				<path clip-path="url(#SVGID_6_)" fill="none" stroke="#0082CA" stroke-width="2" stroke-linecap="round" stroke-linejoin="round" stroke-miterlimit="10" d="
				M580.64,205.188c6.904,0,12.5,5.588,12.5,12.48s-5.596,12.48-12.5,12.48"/>
			
				<path clip-path="url(#SVGID_6_)" fill="none" stroke="#0082CA" stroke-width="2" stroke-linecap="round" stroke-linejoin="round" stroke-miterlimit="10" d="
				M380.64,280.072c-6.904,0-12.5-5.589-12.5-12.481"/>
			
				<path clip-path="url(#SVGID_6_)" fill="none" stroke="#0082CA" stroke-width="2" stroke-linecap="round" stroke-linejoin="round" stroke-miterlimit="10" d="
				M593.14,267.59c0,6.894-5.596,12.481-12.5,12.481"/>
			
				<line clip-path="url(#SVGID_6_)" fill="none" stroke="#0082CA" stroke-width="2" stroke-linecap="round" stroke-linejoin="round" stroke-miterlimit="10" x1="380.64" y1="230.149" x2="580.64" y2="230.149"/>
			
				<line clip-path="url(#SVGID_6_)" fill="none" stroke="#0082CA" stroke-width="2" stroke-linecap="round" stroke-linejoin="round" stroke-miterlimit="10" x1="580.64" y1="280.072" x2="380.64" y2="280.072"/>
			
				<line clip-path="url(#SVGID_6_)" fill="none" stroke="#0082CA" stroke-width="2" stroke-linecap="round" stroke-linejoin="round" stroke-miterlimit="10" x1="580.64" y1="205.188" x2="580.64" y2="230.149"/>
			
				<line clip-path="url(#SVGID_6_)" fill="none" stroke="#0082CA" stroke-width="2" stroke-linecap="round" stroke-linejoin="round" stroke-miterlimit="10" x1="380.64" y1="205.188" x2="380.64" y2="230.149"/>
		</g>
	</g>
	
		<circle fill="none" stroke="#111820" stroke-width="2" stroke-linecap="round" stroke-linejoin="round" stroke-miterlimit="10" cx="480.64" cy="280.188" r="200"/>
</g>
</svg>
